<?xml version="1.0" encoding="utf-8"?>
<!-- Generator: Adobe Illustrator 25.0.1, SVG Export Plug-In . SVG Version: 6.00 Build 0)  -->
<svg version="1.1" id="Layer_1" xmlns="http://www.w3.org/2000/svg" xmlns:xlink="http://www.w3.org/1999/xlink" x="0px" y="0px"
	 viewBox="0 0 1366 768" style="enable-background:new 0 0 1366 768;" xml:space="preserve">
<style type="text/css">
	.st0{fill:#00FF00;}
	.st1{fill:#3FFF45;}
	.st2{fill:#00FF45;}
</style>
<g>
	<ellipse class="st0" cx="874" cy="657.5" rx="49" ry="17.5"/>
</g>
<ellipse class="st0" cx="841" cy="556.5" rx="24" ry="111.5"/>
<ellipse class="st0" cx="693.5" cy="556.5" rx="25.5" ry="111.5"/>
<ellipse class="st0" cx="656.5" cy="657.5" rx="47.5" ry="17.5"/>
<rect x="693" y="198" class="st0" width="148" height="268"/>
<polygon class="st1" points="849,482 855,576 849,624 834,536 "/>
<path class="st1" d="M704,498c-18,40-11,83-11,83c14,28,21-35,21-35C710,506,704,498,704,498z"/>
<path class="st1" d="M874,648c35,10,27,15,27,15l-18,5C868,658,874,648,874,648z"/>
<path class="st1" d="M817,212c-67,111-72,186-72,186c74,36,67-58,67-58C827,240,817,212,817,212z"/>
<path class="st1" d="M691.7,648c-33.7,20-40.7,9.5-40.7,9.5C677,648,691.7,648,691.7,648z"/>
<ellipse class="st2" cx="760" cy="120.5" rx="127" ry="97.5"/>
<path class="st2" d="M817,56c44,78,8,112,8,112c-64-62-36-112-36-112C817,56,817,56,817,56z"/>
<ellipse cx="695" cy="94" rx="24" ry="18"/>
<ellipse cx="765" cy="98" rx="12" ry="22"/>
</svg>
