<?xml version="1.0" encoding="utf-8"?>
<!-- Generator: Adobe Illustrator 25.0.1, SVG Export Plug-In . SVG Version: 6.00 Build 0)  -->
<svg version="1.1" id="Layer_1" xmlns="http://www.w3.org/2000/svg" xmlns:xlink="http://www.w3.org/1999/xlink" x="0px" y="0px"
	 viewBox="0 0 1366 768" style="enable-background:new 0 0 1366 768;" xml:space="preserve">
<style type="text/css">
	.st0{fill:#00FFFF;}
	.st1{fill:#7CFFFF;}
</style>
<g>
	<ellipse class="st0" cx="719" cy="261" rx="150" ry="145"/>
</g>
<ellipse class="st0" cx="722.5" cy="536" rx="39.5" ry="161"/>
<path class="st1" d="M811,163c-39-29-77-40-77-40l-31,20l66,53L811,163z"/>
<circle cx="750.5" cy="240.5" r="31.5"/>
<circle cx="671.5" cy="240.5" r="31.5"/>
<path d="M719,319.1l-68.2-13c-1.8,4.2-2.8,8.6-2.8,13c0,25.8,32.1,47,71,47s71-21.2,71-47c0-2.9-0.4-5.8-1.2-8.6L719,319.1z"/>
<circle class="st0" cx="868.5" cy="500.5" r="35.5"/>
<ellipse class="st0" cx="599.5" cy="505" rx="40.5" ry="40"/>
</svg>
